<?xml version="1.0" encoding="UTF-8" standalone="no"?>
<svg width="158px" height="68px" viewBox="0 0 158 68" version="1.1" xmlns="http://www.w3.org/2000/svg" xmlns:xlink="http://www.w3.org/1999/xlink">
    <!-- Generator: Sketch 3.6.1 (26313) - http://www.bohemiancoding.com/sketch -->
    <title>logo</title>
    <desc>Created with Sketch.</desc>
    <defs></defs>
    <g id="-UI-kit" stroke="none" stroke-width="1" fill="none" fill-rule="evenodd">
        <g id="Artboard-3" transform="translate(-265.000000, -35.000000)">
            <g id="logo" transform="translate(265.000000, 35.000000)">
                <path d="M18.1340594,17.532 L18.1070594,17.067 C20.2120594,16.949 22.3630594,15.096 22.3010594,13.971 C22.2100594,12.315 20.0720594,11.976 18.8710594,10.023 C16.3080594,5.849 19.7280594,0 24.8660594,0 C31.2470594,0 33.4890594,7.667 30.5640594,12.242 C28.1750594,15.984 22.7360594,17.278 18.1340594,17.532 L18.1340594,17.532 Z" id="Shape-Copy" fill="#00C969"></path>
                <path d="M72.064,26 L67.975,40.128 L63.759,26 L52.857,26 L48.639,40.138 L44.51,26 L31,26 L33.83,34.053 L41.202,58.79 L54.263,58.794 L58.367,41.431 L62.043,58.794 L75.376,58.79 L85.147,26 C85.147,26 76.085,26 72.064,26 L72.064,26 Z" id="Shape-Copy-2" fill="#445755"></path>
                <path d="M143.829,26 L137.906,45.507 L132.033,26 L119,26 L128.801,58.789 L133.877,58.788 L131.297,67.307 L144.332,67.307 L154.44,33.988 L157.289,26 L143.829,26 Z" id="Shape-Copy-3" fill="#445755"></path>
                <path d="M117.665,48.0413179 C117.055,47.6243179 117.088,46.4293179 117.088,45.8203179 L117.088,36.1743179 C117.088,31.3463179 115.416,27.8613179 110.713,26.1993179 C107.286,24.9873179 102.2,24.9393179 98.578,25.0293179 C92.927,25.0293179 86.143,26.1553179 86.143,26.1553179 L89.257,36.5833179 C89.257,36.5833179 93.986,35.6833179 97.006,35.6833179 C98.337,35.6833179 103.086,35.6473179 103.762,37.1153179 C103.813,37.2263179 103.836,37.3473179 103.836,37.4743179 L103.836,38.0413179 L100.357,38.0413179 C92.903,38.0413179 85,40.0543179 85,48.9213179 C85,54.3863179 87.805,59.2043179 98.143,59.2043179 C102.351,59.2043179 106.197,56.7533179 106.197,56.7533179 C108.194,58.5563179 112.176,59.0873179 114.605,59.0873179 C117.087,59.0873179 121.143,58.4173179 122.836,57.7103179 L119.9,47.8863179 C119.901,47.8873179 118.363,48.5193179 117.665,48.0413179 L117.665,48.0413179 Z M104.428,48.8543179 C102.919,49.2503179 101.24,49.6223179 99.728,49.6223179 C98.921,49.6223179 97.596,49.3843179 97.596,48.3513179 C97.596,46.6423179 99.875,46.4813179 101.131,46.4523179 L104.428,46.3703179 L104.428,48.8543179 L104.428,48.8543179 Z" id="Shape-Copy-4" fill="#445755"></path>
                <path d="M8.041,23.081 C11.93,23.081 15.084,19.928 15.084,16.039 C15.084,12.151 11.929,9 8.041,9 C4.157,9 1,12.151 1,16.039 C1,19.928 4.156,23.081 8.041,23.081 L8.041,23.081 Z" id="Shape-Copy-5" fill="#445755"></path>
                <path d="M1.8,58.789 L14.016,58.789 L15.783,26 L0,26 L1.8,58.789 Z" id="Shape-Copy-6" fill="#445755"></path>
            </g>
        </g>
    </g>
</svg>